<?xml version="1.0" standalone="no"?>
<!DOCTYPE svg PUBLIC "-//W3C//DTD SVG 20010904//EN"
 "http://www.w3.org/TR/2001/REC-SVG-20010904/DTD/svg10.dtd">
<svg version="1.0" xmlns="http://www.w3.org/2000/svg"
 width="300.000000pt" height="300.000000pt" viewBox="0 0 300.000000 300.000000"
 preserveAspectRatio="xMidYMid meet">
<metadata>
Created by potrace 1.15, written by Peter Selinger 2001-2017
</metadata>
<g transform="translate(0.000000,300.000000) scale(0.100000,-0.100000)"
fill="#000000" stroke="none">
<path d="M2405 2779 c-621 -65 -1097 -110 -1132 -107 l-37 3 -211 -360 c-769
-1310 -945 -1615 -945 -1640 0 -96 210 -311 335 -343 60 -16 196 -30 430 -47
116 -8 266 -19 335 -25 69 -5 222 -17 340 -25 118 -9 300 -22 404 -31 104 -8
191 -13 193 -10 5 4 53 132 461 1231 333 897 342 922 342 929 0 3 -20 6 -45 6
-43 0 -45 2 -85 60 -53 78 -72 184 -51 282 8 35 16 73 19 86 4 20 1 22 -39 21
-24 -1 -165 -14 -314 -30z m319 -232 c6 -68 12 -85 43 -130 20 -29 46 -61 58
-72 l23 -20 -391 -1028 -391 -1028 -70 6 c-39 2 -307 21 -596 40 -289 19 -588
40 -665 45 -77 5 -174 10 -215 10 -68 0 -80 3 -135 36 -33 20 -82 55 -109 78
-54 44 -126 147 -126 179 0 17 5 19 68 13 37 -3 121 -8 187 -11 231 -10 733
-35 1040 -51 171 -8 344 -14 385 -12 l75 3 335 860 c184 473 364 934 399 1024
40 102 66 158 71 150 4 -8 10 -49 14 -92z"/>
</g>
</svg>
